<svg id="Layer_1" data-name="Layer 1" xmlns="http://www.w3.org/2000/svg" viewBox="0 0 33 39.6"><defs><style>.cls-1{fill-rule:evenodd;}</style></defs><title>icon-bag_blk</title><path class="cls-1" d="M11.2,16.7a2.1,2.1,0,0,1,.1,4.1,2.1,2.1,0,0,1-2.2-2h0A2.1,2.1,0,0,1,11.2,16.7Z" transform="translate(0 -0.4)"/><path class="cls-1" d="M28.7,11.7H24.6C24.5,6.5,23,.4,16.5.4A7.5,7.5,0,0,0,12,1.7C8.6,4,8.3,10,8.3,11.7H4.2c-2.7,0-4.5,2.6-4.2,5.7L2.1,35.9A4.7,4.7,0,0,0,6.6,40H26.4a4.7,4.7,0,0,0,4.4-4.1l2.1-18.5C33.3,14.3,31.4,11.7,28.7,11.7ZM16.5,3.8c5,0,5.3,4.5,5.3,7.9H11.2C11.3,10,11.9,3.8,16.5,3.8Zm14,15.1L28.7,34.1a4,4,0,0,1-3.8,3.4H8a3.8,3.8,0,0,1-3.7-3.4L2.5,18.9c-.3-2.6,1.3-4.7,3.6-4.7H26.9C29.2,14.2,30.8,16.3,30.5,18.9Z" transform="translate(0 -0.4)"/><path class="cls-1" d="M21.8,16.7a2.1,2.1,0,1,1,.1,4.1,2.1,2.1,0,0,1-2.2-2h0a2.1,2.1,0,0,1,2.1-2.1Z" transform="translate(0 -0.4)"/></svg>